<?xml version="1.0" encoding="utf-8"?>
<!-- Generator: Adobe Illustrator 18.1.0, SVG Export Plug-In . SVG Version: 6.00 Build 0)  -->
<svg version="1.1" id="Layer_1" xmlns="http://www.w3.org/2000/svg" xmlns:xlink="http://www.w3.org/1999/xlink" x="0px" y="0px"
	 viewBox="400 58 589 676" enable-background="new 400 58 589 676" xml:space="preserve">
<g>
	<circle fill="#DEE3C1" cx="698.3" cy="570.2" r="70.7"/>
	<g>
		
			<line fill="none" stroke="#BE4243" stroke-width="30" stroke-linecap="round" stroke-linejoin="round" stroke-miterlimit="10" x1="663.2" y1="621.8" x2="644.3" y2="700.3"/>
		
			<polygon fill="#BE4243" stroke="#BE4243" stroke-width="7" stroke-linecap="round" stroke-linejoin="round" stroke-miterlimit="10" points="
			632.5,701.6 606.8,726.2 655.1,726.2 658.2,692 		"/>
	</g>
	<g>
		
			<line fill="none" stroke="#BE4243" stroke-width="30" stroke-linecap="round" stroke-linejoin="round" stroke-miterlimit="10" x1="736.9" y1="621.8" x2="755.8" y2="700.3"/>
		
			<polygon fill="#BE4243" stroke="#BE4243" stroke-width="7" stroke-linecap="round" stroke-linejoin="round" stroke-miterlimit="10" points="
			767.6,701.6 793.3,726.2 745,726.2 741.9,692 		"/>
	</g>
	<g>
		<path fill="none" stroke="#BE4243" stroke-width="30" stroke-linecap="round" stroke-linejoin="round" stroke-miterlimit="10" d="
			M636.5,553.3c-38.9-3.1-73.4,23.2-80,61.6"/>
		
			<line fill="none" stroke="#BE4243" stroke-width="15" stroke-linecap="round" stroke-linejoin="round" stroke-miterlimit="10" x1="571.2" y1="602.9" x2="581.8" y2="625.9"/>
		<path fill="#BE4243" d="M563.7,601.4l1.6-11c0,0,12.9-35.3,0.3-24.2c-11.6,10.3-29.7,37.5-32.4,41.6c-2.5,3.6-4,8.1-4,12.8
			c0,12.5,10.1,22.6,22.6,22.6c9.8,0,16.4-4.5,19.5-13.2c0.9-2.4,3.1-6.7,3.1-9.4C574.5,612.5,570.2,605.4,563.7,601.4z"/>
	</g>
	<g>
		<path fill="none" stroke="#BE4243" stroke-width="30" stroke-linecap="round" stroke-linejoin="round" stroke-miterlimit="10" d="
			M811.1,532.6c-0.6,39,27.8,71.7,66.6,75.9"/>
		
			<line fill="none" stroke="#BE4243" stroke-width="15" stroke-linecap="round" stroke-linejoin="round" stroke-miterlimit="10" x1="864.7" y1="594.7" x2="887.1" y2="582.6"/>
		<path fill="#BE4243" d="M863.7,602.2l-11.1-0.9c0,0-36-10.7-24.1,1.2c11,11,39.3,27.3,43.5,29.7c3.8,2.3,8.3,3.5,13.1,3.2
			c12.5-0.8,21.9-11.6,21.2-24c-0.6-9.8-5.5-16.1-14.4-18.7c-2.4-0.7-6.9-2.7-9.6-2.5C874.1,590.7,867.3,595.5,863.7,602.2z"/>
	</g>
	<path fill="#E35050" d="M692.8,578.8c4.8,6.6,15.3,17.9,28.7,13.1c9.7-3.5,14.4-21.8,14.4-21.8s12,9.8,33.3,4.6
		s26.8-25.1,26.8-25.1s-4.2,27.7,19.2,24.9c23.2-2.7,15.5-45.5,15.4-46.1c2.8,15.3,19.4,30.2,31.5,13.8c9.1-12.3,6.5-32.9,5-47.1
		c1.2,11.2,12.9,30.5,26.2,23.9c17.5-8.5,8.8-41.8,4.5-55.2c6.6,20.3,30.1,8,35.5-5.7c7.6-19.3-6.3-43.6-15.9-59.8
		c8.7,11.3,28.1,21.4,34.1,2.1c10.5-34.1-15.6-66-36.6-89.8c9,10.7,48,45.3,49.8,10.3c1.6-32.1-30.2-55.7-56.3-67.4
		c8,3.4,16.5,6.8,25.2,7.4c23,1.4,19.4-19.5,8.2-31.8c-12-13.2-27.6-23.4-43.5-31.3c5.4,5.2,19.6,14,27.2,13
		c13.1-1.9,19.2-26.6,12.9-33.6c-18-20-48.6-12.8-60-8l4.6-1.3c20.8-5.9,24.3-25.7,18.4-41.3c-11.6-30.7-62.6-17.1-91.3-6.2
		c9.7-3.7,21.1-3.7,26.1-14.7c4.6-10.2-1.2-20.9-10.8-25.5c-24.2-11.6-49.9,9.9-68.7,22.7c6.7-5.3,18.4-13.3,20.1-22.3
		c3.3-18-24.5-15.5-34.4-13.1c-18.6,4.5-35.3,16.7-46.2,32.3h-5.2c-10.9-15.6-27.6-27.8-46.2-32.3c-9.9-2.4-37.7-4.9-34.4,13.1
		c1.7,9,13.4,17,20.1,22.3c-18.8-12.7-44.5-34.2-68.7-22.7c-9.6,4.6-15.4,15.3-10.8,25.5c5,11.1,16.4,11,26.1,14.7
		c-28.6-11-79.7-24.6-91.3,6.2c-5.9,15.6-2.3,35.4,18.4,41.3l4.6,1.3c-11.4-4.8-42-12-60,8c-6.3,7-0.2,31.7,12.9,33.6
		c7.6,1.1,21.8-7.8,27.2-13c-15.9,7.8-31.5,18.1-43.5,31.3c-11.2,12.4-14.9,33.2,8.2,31.8c8.7-0.5,17.3-4,25.2-7.4
		c-26.1,11.8-57.9,35.4-56.3,67.4c1.8,35,40.8,0.4,49.8-10.3c-20.9,23.8-47.1,55.6-36.6,89.8c6,19.3,25.4,9.2,34.1-2.1
		c-9.5,16.3-23.4,40.5-15.9,59.8c5.4,13.7,28.9,26,35.5,5.7c-4.4,13.4-13,46.6,4.5,55.2c13.4,6.5,25.1-12.7,26.2-23.9
		c-1.5,14.2-4.1,34.8,5,47.1c12.1,16.3,28.7,1.5,31.5-13.8c-0.1,0.6-7.8,43.4,15.4,46.1c23.3,2.7,19.2-24.9,19.2-24.9
		s5.5,19.9,26.8,25.1s33.3-4.6,33.3-4.6s4.7,18.4,14.4,21.8c13.3,4.8,23.7-6.2,28.6-12.9"/>
	<g>
		<g>
			
				<path fill="#FFFFFF" stroke="#231F20" stroke-width="14" stroke-linecap="round" stroke-linejoin="round" stroke-miterlimit="10" d="
				M680.6,354.8c0,0,1.9,11.5,12.9,11.5"/>
			
				<path fill="#FFFFFF" stroke="#231F20" stroke-width="14" stroke-linecap="round" stroke-linejoin="round" stroke-miterlimit="10" d="
				M706.5,354.8c0,0-1.9,11.5-12.9,11.5"/>
		</g>
		<g>
			
				<circle fill="#FFFFFF" stroke="#231F20" stroke-width="14" stroke-linecap="round" stroke-linejoin="round" stroke-miterlimit="10" cx="591.6" cy="346.6" r="70.5"/>
			<g>
				<path fill="#231F20" d="M592.4,346.6l34.2-10.7c-4.5-14.6-18.1-25.2-34.2-25.2c-19.8,0-35.8,16-35.8,35.8s16,35.8,35.8,35.8
					c16.1,0,29.7-10.6,34.2-25.2L592.4,346.6z"/>
				<path fill="#231F20" d="M592.4,386c-21.7,0-39.4-17.7-39.4-39.4s17.7-39.4,39.4-39.4c17.4,0,32.5,11.1,37.6,27.7
					c0.6,1.9-0.5,3.9-2.3,4.5l-23.3,7.3l23.3,7.3c1.9,0.6,2.9,2.6,2.3,4.5C624.8,374.9,609.7,386,592.4,386z M592.4,314.3
					c-17.8,0-32.3,14.5-32.3,32.3s14.5,32.3,32.3,32.3c13,0,24.5-7.6,29.6-19.3l-30.6-9.6c-1.5-0.5-2.5-1.8-2.5-3.4s1-2.9,2.5-3.4
					l30.6-9.6C616.9,321.9,605.4,314.3,592.4,314.3z"/>
			</g>
			
				<circle fill="#FFFFFF" stroke="#231F20" stroke-width="14" stroke-linecap="round" stroke-linejoin="round" stroke-miterlimit="10" cx="796.2" cy="346.6" r="70.5"/>
			<g>
				<path fill="#231F20" d="M797,346.6l34.2-10.7c-4.5-14.6-18.1-25.2-34.2-25.2c-19.8,0-35.8,16-35.8,35.8s16,35.8,35.8,35.8
					c16.1,0,29.7-10.6,34.2-25.2L797,346.6z"/>
				<path fill="#231F20" d="M797,386c-21.7,0-39.4-17.7-39.4-39.4s17.7-39.4,39.4-39.4c17.4,0,32.5,11.1,37.6,27.7
					c0.6,1.9-0.5,3.9-2.3,4.5l-23.3,7.3l23.3,7.3c1.9,0.6,2.9,2.6,2.3,4.5C829.5,374.9,814.4,386,797,386z M797,314.3
					c-17.8,0-32.3,14.5-32.3,32.3s14.5,32.3,32.3,32.3c13,0,24.5-7.6,29.6-19.3L796,350c-1.5-0.5-2.5-1.8-2.5-3.4s1-2.9,2.5-3.4
					l30.6-9.6C821.5,321.9,810.1,314.3,797,314.3z"/>
			</g>
		</g>
	</g>
	
		<polygon fill="#DEE3C1" stroke="#DEE3C1" stroke-width="30" stroke-linecap="round" stroke-linejoin="round" stroke-miterlimit="10" points="
		700,653.5 622.2,653.5 644.3,607.5 753.7,607.5 775.8,653.5 697.9,653.5 	"/>
	
		<line fill="none" stroke="#A97D51" stroke-width="14" stroke-linecap="round" stroke-linejoin="round" stroke-miterlimit="10" x1="644.3" y1="607.5" x2="753.7" y2="607.5"/>
	<g>
		
			<polyline fill="none" stroke="#FCEE23" stroke-width="30" stroke-linecap="round" stroke-linejoin="round" stroke-miterlimit="10" points="
			502.5,245.5 488.1,267.4 516,272 		"/>
		
			<polyline fill="none" stroke="#FCEE23" stroke-width="30" stroke-linecap="round" stroke-linejoin="round" stroke-miterlimit="10" points="
			529.7,235.3 515.4,257.2 543.2,261.8 		"/>
		
			<polyline fill="none" stroke="#FCEE23" stroke-width="30" stroke-linecap="round" stroke-linejoin="round" stroke-miterlimit="10" points="
			466.5,254 452.1,275.9 479.9,280.5 		"/>
		
			<polyline fill="none" stroke="#FCEE23" stroke-width="30" stroke-linecap="round" stroke-linejoin="round" stroke-miterlimit="10" points="
			433.3,261.8 419,283.7 446.8,288.4 		"/>
	</g>
	<g>
		
			<polyline fill="none" stroke="#FCEE23" stroke-width="30" stroke-linecap="round" stroke-linejoin="round" stroke-miterlimit="10" points="
			885.5,245.5 899.9,267.4 872,272 		"/>
		
			<polyline fill="none" stroke="#FCEE23" stroke-width="30" stroke-linecap="round" stroke-linejoin="round" stroke-miterlimit="10" points="
			858.3,235.3 872.6,257.2 844.8,261.8 		"/>
		
			<polyline fill="none" stroke="#FCEE23" stroke-width="30" stroke-linecap="round" stroke-linejoin="round" stroke-miterlimit="10" points="
			921.5,254 935.9,275.9 908.1,280.5 		"/>
		
			<polyline fill="none" stroke="#FCEE23" stroke-width="30" stroke-linecap="round" stroke-linejoin="round" stroke-miterlimit="10" points="
			954.7,261.8 969,283.7 941.2,288.4 		"/>
	</g>
	
		<rect x="896.6" y="535.5" transform="matrix(-0.897 -0.442 0.442 -0.897 1466.5695 1558.7888)" fill="#F6EED9" stroke="#F6EED9" stroke-width="30" stroke-linecap="round" stroke-linejoin="round" stroke-miterlimit="10" width="36.7" height="146"/>
	<path fill="none" stroke="#A97D51" stroke-width="14" stroke-linecap="round" stroke-linejoin="round" stroke-miterlimit="10" d="
		M890.8,602.9l38,18.9c0,0,21.3,9.8,13.3,31.8s16.7,21.3,16.7,21.3"/>
	
		<circle fill="none" stroke="#BE4243" stroke-width="14" stroke-linecap="round" stroke-linejoin="round" stroke-miterlimit="10" cx="914" cy="614.4" r="11.8"/>
</g>
</svg>
