<?xml version="1.0" encoding="utf-8"?>
<!-- Generator: Adobe Illustrator 18.1.0, SVG Export Plug-In . SVG Version: 6.00 Build 0)  -->
<svg version="1.1" id="Layer_1" xmlns="http://www.w3.org/2000/svg" xmlns:xlink="http://www.w3.org/1999/xlink" x="0px" y="0px"
	 viewBox="355 -85 578 850" enable-background="new 355 -85 578 850" xml:space="preserve">
<g>
	
		<path fill="#5A4B43" stroke="#5A4B43" stroke-width="7" stroke-linecap="round" stroke-linejoin="round" stroke-miterlimit="10" d="
		M699.9,633.8c0,0,9-15.9,14.2-9.9l4,4.3c0,0,4.7,3.7-2.3,9.2s-5.2,10.5-5.2,10.5l-12.7-1L699.9,633.8z"/>
	
		<path fill="#9B8579" stroke="#9B8579" stroke-width="7" stroke-linecap="round" stroke-linejoin="round" stroke-miterlimit="10" d="
		M695.3,637.4c0,0,4.4,8.5,12.8,4.4s1.8,15.9,1.8,15.9s-0.9,15.3-7.8,14.7c-6.8-0.7-12.9-15-6.8-34.3"/>
	<circle fill="#BE4243" cx="634.7" cy="599.8" r="70.7"/>
	<g>
		
			<line fill="none" stroke="#BE4243" stroke-width="30" stroke-linecap="round" stroke-linejoin="round" stroke-miterlimit="10" x1="599.5" y1="651.4" x2="580.6" y2="729.9"/>
		
			<polygon fill="#9B8579" stroke="#9B8579" stroke-width="7" stroke-linecap="round" stroke-linejoin="round" stroke-miterlimit="10" points="
			568.8,731.2 543.1,755.8 591.4,755.8 594.5,721.6 		"/>
	</g>
	<g>
		<path fill="none" stroke="#BE4243" stroke-width="30" stroke-linecap="round" stroke-linejoin="round" stroke-miterlimit="10" d="
			M572.8,582.9c-38.9-3.1-73.4,23.2-80,61.6"/>
		
			<line fill="none" stroke="#BE4243" stroke-width="15" stroke-linecap="round" stroke-linejoin="round" stroke-miterlimit="10" x1="507.5" y1="632.5" x2="518.1" y2="655.5"/>
		<path fill="#BE4243" d="M500,631l1.6-11c0,0,12.9-35.3,0.3-24.2c-11.6,10.3-29.7,37.5-32.4,41.6c-2.5,3.7-4,8.1-4,12.8
			c0,12.5,10.1,22.6,22.6,22.6c9.8,0,16.4-4.5,19.5-13.2c0.9-2.4,3.1-6.7,3.1-9.4C510.9,642.1,506.5,635,500,631z"/>
	</g>
	<g>
		<path fill="none" stroke="#BE4243" stroke-width="30" stroke-linecap="round" stroke-linejoin="round" stroke-miterlimit="10" d="
			M799,557.5c31.9,22.5,74.9,17.4,100.2-12.4"/>
		
			<line fill="none" stroke="#BE4243" stroke-width="15" stroke-linecap="round" stroke-linejoin="round" stroke-miterlimit="10" x1="880.5" y1="548" x2="883.1" y2="522.8"/>
		<path fill="#BE4243" d="M886.1,553.1l-7,8.6c0,0-29.1,23.8-12.6,20.6c15.3-2.9,44.7-17.2,49-19.3c4-1.9,7.6-4.9,10-9
			c6.4-10.8,2.8-24.6-8-31c-8.4-5-16.4-4.5-23.5,1.4c-2,1.6-6.1,4.2-7.5,6.5C882.5,538,882.6,546.4,886.1,553.1z"/>
	</g>
	<path fill="#E35050" d="M631.1,608.6c-4.8,6.6-15.3,17.6-28.6,12.9c-9.7-3.5-14.4-21.8-14.4-21.8s-12,9.8-33.3,4.6
		s-26.8-25.1-26.8-25.1s4.2,27.7-19.2,24.9c-23.2-2.7-15.5-45.5-15.4-46.1c-2.8,15.3-19.4,30.2-31.5,13.8c-9.1-12.3-6.5-32.9-5-47.1
		c-1.2,11.2-12.9,30.5-26.2,23.9c-17.5-8.5-8.8-41.8-4.5-55.2c-6.6,20.3-30.1,8-35.5-5.7c-7.6-19.3,6.3-43.6,15.9-59.8
		c-8.7,11.3-28.1,21.4-34.1,2.1c-10.5-34.1,15.6-66,36.6-89.8c-9,10.8-48,45.3-49.8,10.3c-1.6-32.1,30.2-55.7,56.3-67.4
		c-8,3.4-16.5,6.8-25.2,7.4c-23,1.4-19.4-19.5-8.2-31.8c12-13.2,27.6-23.4,43.5-31.3c-5.4,5.2-19.6,14-27.2,13
		c-13.1-1.9-19.2-26.6-12.9-33.6c18-20,48.6-12.8,60-8l-4.6-1.3c-20.8-5.9-24.3-25.7-18.4-41.3l11.1-12.6l313,6.5
		c33.7,3.5,79.7-24.6,91.3,6.2c5.9,15.6,2.3,35.4-18.4,41.3l-4.6,1.3c11.4-4.8,42-12,60,8c6.3,7,0.2,31.7-12.9,33.6
		c-7.6,1.1-21.8-7.8-27.2-13c15.9,7.8,31.5,18.1,43.5,31.3c11.2,12.4,14.9,33.2-8.2,31.8c-8.7-0.5-17.3-4-25.2-7.4
		c26.1,11.8,57.9,35.4,56.3,67.4c-1.8,35-40.8,0.4-49.8-10.3c20.9,23.8,47.1,55.6,36.6,89.8c-6,19.3-25.4,9.2-34.1-2.1
		c9.5,16.3,23.4,40.5,15.9,59.8c-5.4,13.7-28.9,26-35.5,5.7c4.4,13.4,13,46.6-4.5,55.2c-13.4,6.5-25.1-12.7-26.2-23.9
		c1.5,14.2,4.1,34.8-5,47.1c-12.1,16.3-28.7,1.5-31.5-13.8c0.1,0.6,7.8,43.4-15.4,46.1c-23.3,2.7-19.2-24.9-19.2-24.9
		s-5.5,19.9-26.8,25.1s-33.3-4.6-33.3-4.6s-4.7,18.4-14.4,21.8c-13.5,4.8-24-6.5-28.7-13.1"/>
	<g id="XMLID_83_">
		<g>
			<path fill="#9B8579" d="M639.4-2.6c0-10.9,2.3-61.2,44-61.2c46.8,0,51.7,67,51.7,67v151.4c-72.5,0-103.1,0-103.1,0
				s-26.5,0-88.4,0V3.2c0,0,4.9-67,51.7-67C637.1-63.8,639.4-13.4,639.4-2.6z"/>
		</g>
		<g>
			
				<path fill="none" stroke="#9B8579" stroke-width="30" stroke-linecap="round" stroke-linejoin="round" stroke-miterlimit="10" d="
				M385.4,88.8c0,0,7.1,65.8,106.4,65.8c19.5,0,36.7,0,51.8,0c61.9,0,88.4,0,88.4,0"/>
			
				<path fill="none" stroke="#9B8579" stroke-width="30" stroke-linecap="round" stroke-linejoin="round" stroke-miterlimit="10" d="
				M878.6,88.8c0,0-7.1,65.8-106.4,65.8c-13.4,0-25.8,0-37.1,0c-72.5,0-103.1,0-103.1,0"/>
			
				<path fill="none" stroke="#9B8579" stroke-width="30" stroke-linecap="round" stroke-linejoin="round" stroke-miterlimit="10" d="
				M735.1,154.6V3.2c0,0-4.9-67-51.7-67c-41.8,0-44,50.3-44,61.2c0,1.3,0,2.1,0,2.1"/>
			
				<path fill="none" stroke="#9B8579" stroke-width="30" stroke-linecap="round" stroke-linejoin="round" stroke-miterlimit="10" d="
				M543.6,154.6V3.2c0,0,4.9-67,51.7-67c41.8,0,44,50.3,44,61.2c0,1.3,0,2.1,0,2.1"/>
		</g>
	</g>
	
		<polygon fill="#9B8579" stroke="#9B8579" stroke-width="15" stroke-linecap="round" stroke-linejoin="round" stroke-miterlimit="10" points="
		568.8,736.1 563.9,708.1 594.5,708.1 587.2,747.6 	"/>
	<g>
		
			<line fill="none" stroke="#BE4243" stroke-width="30" stroke-linecap="round" stroke-linejoin="round" stroke-miterlimit="10" x1="673.7" y1="651.4" x2="692.7" y2="729.9"/>
		
			<polygon fill="#9B8579" stroke="#9B8579" stroke-width="7" stroke-linecap="round" stroke-linejoin="round" stroke-miterlimit="10" points="
			704.5,731.2 730.2,755.8 681.8,755.8 678.7,721.6 		"/>
	</g>
	
		<polygon fill="#9B8579" stroke="#9B8579" stroke-width="15" stroke-linecap="round" stroke-linejoin="round" stroke-miterlimit="10" points="
		704.5,736.1 709.3,708.1 678.7,708.1 686,747.6 	"/>
	
		<path fill="#9B8579" stroke="#9B8579" stroke-width="7" stroke-linecap="round" stroke-linejoin="round" stroke-miterlimit="10" d="
		M694.8,637.1c-62,18.8-129.5-23.5-129.5-23.5c2.4,17,9.4,18.9,9.4,18.9s52.5,37.7,114.5,18.9L694.8,637.1z"/>
	
		<rect x="628.7" y="637.4" fill="none" stroke="#CDC762" stroke-width="7" stroke-linecap="round" stroke-linejoin="round" stroke-miterlimit="10" width="19" height="19"/>
	
		<polygon fill="none" stroke="#736759" stroke-width="14" stroke-linecap="round" stroke-linejoin="round" stroke-miterlimit="10" points="
		583.9,76.4 593.2,73.6 590.1,80.3 	"/>
	
		<polygon fill="none" stroke="#736759" stroke-width="14" stroke-linecap="round" stroke-linejoin="round" stroke-miterlimit="10" points="
		572.9,78.2 570.9,68.7 577.3,72.4 	"/>
	
		<polygon fill="none" stroke="#736759" stroke-width="14" stroke-linecap="round" stroke-linejoin="round" stroke-miterlimit="10" points="
		586.5,84.6 590.9,93.3 583.8,91.4 	"/>
	
		<polygon fill="none" stroke="#736759" stroke-width="14" stroke-linecap="round" stroke-linejoin="round" stroke-miterlimit="10" points="
		569.5,91.9 573.9,83.2 576.5,90 	"/>
	<circle fill="#231F20" cx="581.9" cy="82.9" r="10.3"/>
	
		<polygon fill="none" stroke="#736759" stroke-width="14" stroke-linecap="round" stroke-linejoin="round" stroke-miterlimit="10" points="
		687,31.9 688.3,41.5 682.3,37.3 	"/>
	
		<polygon fill="none" stroke="#736759" stroke-width="14" stroke-linecap="round" stroke-linejoin="round" stroke-miterlimit="10" points="
		687,20.8 696.8,20.3 692.1,26 	"/>
	
		<polygon fill="none" stroke="#736759" stroke-width="14" stroke-linecap="round" stroke-linejoin="round" stroke-miterlimit="10" points="
		678.5,33.1 669.3,36.1 672.3,29.4 	"/>
	
		<polygon fill="none" stroke="#736759" stroke-width="14" stroke-linecap="round" stroke-linejoin="round" stroke-miterlimit="10" points="
		674.1,15.2 682,20.9 674.8,22.4 	"/>
	<circle fill="#231F20" cx="680.9" cy="28.9" r="10.3"/>
	
		<line fill="none" stroke="#BDBEC0" stroke-width="7" stroke-linecap="round" stroke-linejoin="round" stroke-miterlimit="10" x1="601.1" y1="747.8" x2="610.1" y2="747.8"/>
	
		<line fill="none" stroke="#BDBEC0" stroke-width="7" stroke-linecap="round" stroke-linejoin="round" stroke-miterlimit="10" x1="605.6" y1="743.3" x2="605.6" y2="752.3"/>
	
		<line fill="none" stroke="#BDBEC0" stroke-width="7" stroke-linecap="round" stroke-linejoin="round" stroke-miterlimit="10" x1="662.7" y1="747.8" x2="671.7" y2="747.8"/>
	
		<line fill="none" stroke="#BDBEC0" stroke-width="7" stroke-linecap="round" stroke-linejoin="round" stroke-miterlimit="10" x1="667.2" y1="743.3" x2="667.2" y2="752.3"/>
	<g>
		<g>
			
				<path fill="#FFFFFF" stroke="#231F20" stroke-width="14" stroke-linecap="round" stroke-linejoin="round" stroke-miterlimit="10" d="
				M617,384.4c0,0,1.9,11.5,12.9,11.5"/>
			
				<path fill="#FFFFFF" stroke="#231F20" stroke-width="14" stroke-linecap="round" stroke-linejoin="round" stroke-miterlimit="10" d="
				M642.8,384.4c0,0-1.9,11.5-12.9,11.5"/>
		</g>
		
			<path fill="#FFFFFF" stroke="#231F20" stroke-width="14" stroke-linecap="round" stroke-linejoin="round" stroke-miterlimit="10" d="
			M589.4,341.7c5.7,10.2,9,22,9,34.5c0,38.9-31.6,70.5-70.5,70.5s-70.5-31.6-70.5-70.5c0-24.3,12.3-45.8,31.1-58.5"/>
		<g>
			<path fill="#231F20" d="M528.7,376.2l34.2-10.7c-4.5-14.6-18.1-25.2-34.2-25.2c-19.8,0-35.8,16-35.8,35.8
				c0,19.8,16,35.8,35.8,35.8c16.1,0,29.7-10.6,34.2-25.2L528.7,376.2z"/>
			<path fill="#231F20" d="M528.7,415.6c-21.7,0-39.4-17.7-39.4-39.4s17.7-39.4,39.4-39.4c17.4,0,32.5,11.1,37.6,27.7
				c0.6,1.9-0.5,3.9-2.3,4.5l-23.3,7.3l23.3,7.3c1.9,0.6,2.9,2.6,2.3,4.5C561.2,404.5,546,415.6,528.7,415.6z M528.7,343.9
				c-17.8,0-32.3,14.5-32.3,32.3c0,17.8,14.5,32.3,32.3,32.3c13,0,24.5-7.6,29.6-19.3l-30.6-9.6c-1.5-0.5-2.5-1.8-2.5-3.4
				s1-2.9,2.5-3.4l30.6-9.6C553.2,351.5,541.7,343.9,528.7,343.9z"/>
		</g>
		<path fill="none" stroke="#231F20" stroke-width="14" stroke-linecap="round" stroke-linejoin="round" stroke-miterlimit="10" d="
			M466.8,295.6c0,0,8,31.3,69.3,31.3c0,0,33.8-3.8,53.3,14.8"/>
		
			<path fill="#FFFFFF" stroke="#231F20" stroke-width="14" stroke-linecap="round" stroke-linejoin="round" stroke-miterlimit="10" d="
			M671.1,341.7c-5.7,10.2-9,22-9,34.5c0,38.9,31.6,70.5,70.5,70.5c38.9,0,70.5-31.6,70.5-70.5c0-24.3-12.3-45.8-31.1-58.5"/>
		<path fill="none" stroke="#231F20" stroke-width="14" stroke-linecap="round" stroke-linejoin="round" stroke-miterlimit="10" d="
			M793.6,295.6c0,0-8,31.3-69.3,31.3c0,0-33.8-3.8-53.3,14.8"/>
		<g>
			<path fill="#231F20" d="M733.4,376.2l34.2-10.7c-4.5-14.6-18.1-25.2-34.2-25.2c-19.8,0-35.8,16-35.8,35.8
				c0,19.8,16,35.8,35.8,35.8c16.1,0,29.7-10.6,34.2-25.2L733.4,376.2z"/>
			<path fill="#231F20" d="M733.4,415.6c-21.7,0-39.4-17.7-39.4-39.4s17.7-39.4,39.4-39.4c17.4,0,32.5,11.1,37.6,27.7
				c0.6,1.9-0.5,3.9-2.3,4.5l-23.3,7.3l23.3,7.3c1.9,0.6,2.9,2.6,2.3,4.5C765.8,404.5,750.7,415.6,733.4,415.6z M733.4,343.9
				c-17.8,0-32.3,14.5-32.3,32.3c0,17.8,14.5,32.3,32.3,32.3c13,0,24.5-7.6,29.6-19.3l-30.6-9.6c-1.5-0.5-2.5-1.8-2.5-3.4
				s1-2.9,2.5-3.4l30.6-9.6C757.9,351.5,746.4,343.9,733.4,343.9z"/>
		</g>
	</g>
</g>
</svg>
