<?xml version="1.0" encoding="utf-8"?>
<!-- Generator: Adobe Illustrator 16.0.0, SVG Export Plug-In . SVG Version: 6.00 Build 0)  -->
<!DOCTYPE svg PUBLIC "-//W3C//DTD SVG 1.1//EN" "http://www.w3.org/Graphics/SVG/1.1/DTD/svg11.dtd">
<svg version="1.1" id="Layer_1" xmlns="http://www.w3.org/2000/svg" xmlns:xlink="http://www.w3.org/1999/xlink" x="0px" y="0px"
	 width="1000px" height="1000px" viewBox="0 0 1000 1000" enable-background="new 0 0 1000 1000" xml:space="preserve">
<g>
	<circle fill="#BE4243" cx="515.28" cy="738.963" r="70.744"/>
	<g>
		
			<line fill="none" stroke="#BE4243" stroke-width="30" stroke-linecap="round" stroke-linejoin="round" stroke-miterlimit="10" x1="480.162" y1="790.531" x2="461.198" y2="869.055"/>
		
			<polygon fill="#BE4243" stroke="#BE4243" stroke-width="7" stroke-linecap="round" stroke-linejoin="round" stroke-miterlimit="10" points="
			449.41,870.408 423.696,894.943 472.017,894.943 475.125,860.746 		"/>
	</g>
	<g>
		
			<line fill="none" stroke="#BE4243" stroke-width="30" stroke-linecap="round" stroke-linejoin="round" stroke-miterlimit="10" x1="553.791" y1="790.531" x2="572.756" y2="869.055"/>
		
			<polygon fill="#BE4243" stroke="#BE4243" stroke-width="7" stroke-linecap="round" stroke-linejoin="round" stroke-miterlimit="10" points="
			584.543,870.408 610.258,894.943 561.936,894.943 558.828,860.746 		"/>
	</g>
	<g>
		<path fill="none" stroke="#BE4243" stroke-width="30" stroke-linecap="round" stroke-linejoin="round" stroke-miterlimit="10" d="
			M401.101,721.496c-18.451,34.375-59.198,49.116-95.138,33.855"/>
		
			<line fill="#E35050" stroke="#BE4243" stroke-width="15" stroke-linecap="round" stroke-linejoin="round" stroke-miterlimit="10" x1="324.061" y1="749.578" x2="310.414" y2="728.158"/>
		<path fill="#BE4243" d="M321.267,756.643l10.09,4.601c0,0,36.679,8.236,20.496,12.796c-14.954,4.214-47.606,4.668-52.487,4.712
			c-4.434,0.142-8.953-1.003-12.964-3.587c-10.508-6.77-13.537-20.778-6.768-31.287c5.313-8.245,12.653-11.359,21.691-9.273
			c2.48,0.572,7.333,1.05,9.594,2.507C317.781,741.531,321.428,749.039,321.267,756.643z"/>
	</g>
	<g>
		<path fill="none" stroke="#BE4243" stroke-width="30" stroke-linecap="round" stroke-linejoin="round" stroke-miterlimit="10" d="
			M598.639,726.854c28.427,26.721,71.748,27.735,100.967,1.836"/>
		
			<line fill="#E35050" stroke="#BE4243" stroke-width="15" stroke-linecap="round" stroke-linejoin="round" stroke-miterlimit="10" x1="680.611" y1="728.973" x2="686.736" y2="704.324"/>
		<path fill="#BE4243" d="M685.508,734.781l-8.104,7.572c0,0-32.154,19.475-15.361,18.649c15.518-0.761,46.619-10.717,51.26-12.228
			c4.25-1.275,8.17-3.799,11.15-7.524c7.809-9.761,6.225-24.005-3.535-31.813c-7.66-6.128-15.609-6.746-23.516-1.893
			c-2.17,1.33-6.617,3.327-8.297,5.428C684.006,719.346,682.936,727.625,685.508,734.781z"/>
	</g>
	<path fill="#E35050" d="M507.658,747.58c4.758,6.594,15.262,17.922,28.729,13.088c9.711-3.486,14.381-21.842,14.381-21.842
		s11.969,9.842,33.303,4.626s26.826-25.123,26.826-25.123s-4.16,27.672,19.172,24.933c23.176-2.721,15.518-45.512,15.412-46.093
		c2.773,15.335,19.393,30.153,31.518,13.849c9.133-12.279,6.492-32.887,5.031-47.11c1.156,11.248,12.868,30.463,26.242,23.937
		c17.488-8.533,8.832-41.776,4.462-55.176c6.606,20.259,30.142,8.004,35.495-5.699c7.557-19.341-6.348-43.567-15.859-59.846
		c8.652,11.348,28.133,21.441,34.088,2.15c10.529-34.121-15.629-65.98-36.574-89.753c9.027,10.749,48.023,45.306,49.783,10.309
		c1.609-32.071-30.156-55.681-56.275-67.448c7.979,3.361,16.488,6.835,25.229,7.361c23.037,1.389,19.412-19.463,8.186-31.838
		c-11.971-13.191-27.596-23.434-43.514-31.254c5.408,5.197,19.623,14.049,27.215,12.965c13.121-1.873,19.199-26.611,12.896-33.614
		c-18-20-48.553-12.77-60-8l4.578-1.253c20.775-5.895,24.309-25.747,18.434-41.333c-11.59-30.747-62.625-17.126-91.271-6.167
		c9.734-3.724,21.132-3.67,26.143-14.722c4.627-10.209-1.189-20.946-10.758-25.524c-24.164-11.56-49.902,9.939-68.67,22.67
		c6.695-5.31,18.398-13.282,20.082-22.324c3.342-17.968-24.48-15.48-34.381-13.092c-18.602,4.486-35.284,16.672-46.213,32.287
		h-5.213c-10.929-15.615-27.612-27.801-46.213-32.287c-9.9-2.389-37.723-4.876-34.381,13.092
		c1.684,9.042,13.388,17.015,20.083,22.324c-18.769-12.73-44.507-34.229-68.67-22.67c-9.568,4.578-15.385,15.315-10.758,25.524
		c5.01,11.052,16.408,10.998,26.142,14.722c-28.646-10.959-79.681-24.58-91.271,6.167c-5.875,15.586-2.341,35.438,18.434,41.333
		l4.578,1.253c-11.447-4.77-42-12-60,8c-6.303,7.003-0.226,31.741,12.896,33.614c7.591,1.084,21.806-7.768,27.214-12.965
		c-15.917,7.82-31.543,18.062-43.513,31.254c-11.227,12.375-14.853,33.227,8.184,31.838c8.741-0.526,17.251-4,25.23-7.361
		c-26.12,11.768-57.886,35.377-56.275,67.448c1.76,34.997,40.754,0.44,49.783-10.309c-20.946,23.772-47.104,55.632-36.574,89.753
		c5.955,19.291,25.435,9.197,34.086-2.15c-9.511,16.278-23.415,40.505-15.858,59.846c5.354,13.703,28.888,25.958,35.494,5.699
		c-4.369,13.399-13.025,46.643,4.462,55.176c13.374,6.526,25.087-12.688,26.242-23.937c-1.461,14.224-4.101,34.831,5.031,47.11
		c12.125,16.305,28.744,1.486,31.518-13.849c-0.105,0.581-7.763,43.372,15.412,46.093c23.333,2.739,19.173-24.933,19.173-24.933
		s5.492,19.907,26.826,25.123s33.303-4.626,33.303-4.626s4.67,18.355,14.381,21.842c13.312,4.778,23.73-6.236,28.562-12.859"/>
	
		<path fill="#FFFFFF" stroke="#231F20" stroke-width="14" stroke-linecap="round" stroke-linejoin="round" stroke-miterlimit="10" d="
		M340.098,515.365c0-38.935,31.562-70.497,70.497-70.497s70.497,31.562,70.497,70.497c0,17.371-6.283,33.274-16.7,45.562
		c-12.931,15.253-32.234-7.326-53.798-7.326s-40.864,22.58-53.795,7.326C346.381,548.641,340.098,532.736,340.098,515.365z"/>
	<g>
		<path fill="#231F20" d="M411.402,515.365l34.229-10.668c-4.541-14.587-18.148-25.176-34.229-25.176
			c-19.797,0-35.844,16.047-35.844,35.844s16.047,35.844,35.844,35.844c16.082,0,29.688-10.589,34.229-25.176L411.402,515.365z"/>
		<path fill="#231F20" d="M411.402,554.769c-21.727,0-39.403-17.677-39.403-39.403s17.677-39.403,39.403-39.403
			c17.353,0,32.475,11.122,37.628,27.677c0.585,1.877-0.463,3.871-2.339,4.456l-23.328,7.271l23.328,7.271
			c1.876,0.585,2.924,2.579,2.339,4.456C443.876,543.646,428.754,554.769,411.402,554.769z M411.402,483.08
			c-17.802,0-32.285,14.483-32.285,32.285s14.483,32.285,32.285,32.285c13.018,0,24.502-7.637,29.59-19.335l-30.648-9.552
			c-1.488-0.464-2.5-1.841-2.5-3.398s1.012-2.935,2.5-3.398l30.648-9.552C435.904,490.717,424.419,483.08,411.402,483.08z"/>
	</g>
	<g>
		<path fill="#231F20" d="M616.07,515.365l34.23-10.668c-4.541-14.587-18.148-25.176-34.23-25.176
			c-19.796,0-35.844,16.047-35.844,35.844s16.048,35.844,35.844,35.844c16.082,0,29.689-10.589,34.23-25.176L616.07,515.365z"/>
		<path fill="#231F20" d="M616.07,554.769c-21.727,0-39.402-17.677-39.402-39.403s17.676-39.403,39.402-39.403
			c17.354,0,32.475,11.122,37.629,27.677c0.584,1.877-0.463,3.871-2.34,4.456l-23.328,7.271l23.328,7.271
			c1.877,0.585,2.924,2.579,2.34,4.456C648.545,543.646,633.424,554.769,616.07,554.769z M616.07,483.08
			c-17.801,0-32.285,14.483-32.285,32.285s14.484,32.285,32.285,32.285c13.018,0,24.502-7.637,29.59-19.335l-30.648-9.552
			c-1.487-0.464-2.5-1.841-2.5-3.398s1.013-2.935,2.5-3.398l30.648-9.552C640.572,490.717,629.088,483.08,616.07,483.08z"/>
	</g>
	
		<path fill="#FBCA28" stroke="#FBCA28" stroke-width="14" stroke-linecap="round" stroke-linejoin="round" stroke-miterlimit="10" d="
		M330.986,827.745l32.175-7.06l-10.93-49.814l-20.453,4.487l-11.143-50.792c72.28-15.858,40.51-100.005,40.51-100.005
		l-71.304,15.644l-71.304,15.645c0,0,6.374,89.718,78.654,73.859l11.145,50.792l-20.453,4.487l10.929,49.815L330.986,827.745z"/>
	<circle fill="#BE4243" cx="298.37" cy="756.369" r="22.346"/>
	<circle fill="#BE4243" cx="329.957" cy="744.264" r="9.292"/>
	
		<line fill="none" stroke="#FCEE23" stroke-width="14" stroke-miterlimit="10" x1="218.538" y1="150.474" x2="196.605" y2="172.405"/>
	
		<line fill="none" stroke="#08A650" stroke-width="14" stroke-miterlimit="10" x1="359.132" y1="105.057" x2="381.064" y2="126.988"/>
	<line fill="none" stroke="#FCEE23" stroke-width="14" stroke-miterlimit="10" x1="96.845" y1="635.527" x2="74.914" y2="613.596"/>
	
		<line fill="none" stroke="#08A650" stroke-width="14" stroke-miterlimit="10" x1="669.062" y1="186.32" x2="647.131" y2="208.252"/>
	
		<line fill="none" stroke="#2BACE2" stroke-width="14" stroke-miterlimit="10" x1="759.51" y1="133.151" x2="728.494" y2="133.151"/>
	
		<line fill="none" stroke="#2BACE2" stroke-width="14" stroke-miterlimit="10" x1="525.883" y1="150.481" x2="499.321" y2="134.466"/>
	
		<line fill="none" stroke="#FCEE23" stroke-width="14" stroke-miterlimit="10" x1="110.838" y1="336.202" x2="110.838" y2="305.187"/>
	<line fill="none" stroke="#2BACE2" stroke-width="14" stroke-miterlimit="10" x1="145.09" y1="494.093" x2="123.159" y2="472.16"/>
	
		<line fill="none" stroke="#08A650" stroke-width="14" stroke-miterlimit="10" x1="817.387" y1="603.354" x2="839.317" y2="581.423"/>
	
		<line fill="none" stroke="#FCEE23" stroke-width="14" stroke-miterlimit="10" x1="925.086" y1="417.626" x2="925.086" y2="448.642"/>
	
		<line fill="none" stroke="#FCEE23" stroke-width="14" stroke-miterlimit="10" x1="843.811" y1="734.972" x2="874.824" y2="734.971"/>
	
		<line fill="none" stroke="#2BACE2" stroke-width="14" stroke-miterlimit="10" x1="890.834" y1="259.735" x2="912.766" y2="281.668"/>
	<path fill="none" stroke="#FFFFFF" stroke-width="14" stroke-linecap="round" stroke-linejoin="round" stroke-miterlimit="10" d="
		M263.382,656.115l-31.012,6.358c0,0,11.975,57.017,45.654,56.175"/>
	
		<polyline fill="none" stroke="#FFFFFF" stroke-width="14" stroke-linecap="round" stroke-linejoin="round" stroke-miterlimit="10" points="
		298.371,797.974 303.704,818.974 333.704,811.974 	"/>
	
		<path fill="#E35050" stroke="#231F20" stroke-width="14" stroke-linecap="round" stroke-linejoin="round" stroke-miterlimit="10" d="
		M349.53,574.225c12.19-21.072,34.973-35.248,61.065-35.248c26.094,0,48.877,14.178,61.067,35.251"/>
	
		<path fill="#FFFFFF" stroke="#231F20" stroke-width="14" stroke-linecap="round" stroke-linejoin="round" stroke-miterlimit="10" d="
		M544.766,515.365c0-38.935,31.562-70.497,70.498-70.497c38.934,0,70.496,31.562,70.496,70.497c0,17.371-6.283,33.274-16.699,45.562
		c-12.932,15.253-32.234-7.326-53.799-7.326c-21.562,0-40.864,22.58-53.795,7.326C551.049,548.641,544.766,532.736,544.766,515.365z
		"/>
	<g>
		<path fill="#231F20" d="M616.07,515.365l34.229-10.668c-4.541-14.587-18.146-25.176-34.229-25.176
			c-19.797,0-35.844,16.047-35.844,35.844s16.047,35.844,35.844,35.844c16.082,0,29.688-10.589,34.229-25.176L616.07,515.365z"/>
		<path fill="#231F20" d="M616.07,554.769c-21.727,0-39.404-17.677-39.404-39.403s17.678-39.403,39.404-39.403
			c17.352,0,32.475,11.122,37.627,27.677c0.586,1.877-0.463,3.871-2.339,4.456l-23.327,7.271l23.327,7.271
			c1.876,0.585,2.925,2.579,2.339,4.456C648.545,543.646,633.422,554.769,616.07,554.769z M616.07,483.08
			c-17.803,0-32.285,14.483-32.285,32.285s14.482,32.285,32.285,32.285c13.018,0,24.502-7.637,29.59-19.335l-30.648-9.552
			c-1.488-0.464-2.5-1.841-2.5-3.398s1.012-2.935,2.5-3.398l30.648-9.552C640.572,490.717,629.088,483.08,616.07,483.08z"/>
	</g>
	
		<path fill="#E35050" stroke="#231F20" stroke-width="14" stroke-linecap="round" stroke-linejoin="round" stroke-miterlimit="10" d="
		M554.197,574.225c12.191-21.072,34.973-35.248,61.066-35.248s48.877,14.178,61.066,35.251"/>
	<g>
		
			<path fill="#FFFFFF" stroke="#231F20" stroke-width="14" stroke-linecap="round" stroke-linejoin="round" stroke-miterlimit="10" d="
			M512.602,569.516c-35.133,0-41.189-36.613-41.189-36.613h82.378C553.791,532.902,547.733,569.516,512.602,569.516"/>
	</g>
	
		<line fill="#FFFFFF" stroke="#231F20" stroke-width="14" stroke-linecap="round" stroke-linejoin="round" stroke-miterlimit="10" x1="481.092" y1="554.406" x2="544.766" y2="554.406"/>
	
		<line fill="#FFFFFF" stroke="#231F20" stroke-width="14" stroke-linecap="round" stroke-linejoin="round" stroke-miterlimit="10" x1="493.321" y1="562.974" x2="532.537" y2="562.974"/>
	<path fill="none" stroke="#7CBAE5" stroke-width="14" stroke-linecap="round" stroke-linejoin="round" stroke-miterlimit="10" d="
		M700.703,560.474c0,0,0,27.5,12,17.5S700.703,560.474,700.703,560.474z"/>
	<path fill="none" stroke="#7CBAE5" stroke-width="14" stroke-linecap="round" stroke-linejoin="round" stroke-miterlimit="10" d="
		M680.303,525.648c0,0,16.104,22.292,19.977,7.159C704.149,517.674,680.303,525.648,680.303,525.648z"/>
	<path fill="none" stroke="#7CBAE5" stroke-width="14" stroke-linecap="round" stroke-linejoin="round" stroke-miterlimit="10" d="
		M327.144,560.474c0,0,0,27.5-12,17.5S327.144,560.474,327.144,560.474z"/>
	<path fill="none" stroke="#7CBAE5" stroke-width="14" stroke-linecap="round" stroke-linejoin="round" stroke-miterlimit="10" d="
		M347.544,525.648c0,0-16.104,22.292-19.976,7.159C323.698,517.674,347.544,525.648,347.544,525.648z"/>
</g>
</svg>
